<svg xmlns="http://www.w3.org/2000/svg" viewBox="0 0 1024 1024" role="img" aria-labelledby="title desc">
  <title id="title">Promptizer terminal icon</title>
  <desc id="desc">A dark terminal window with cyan neon borders, prompt chevron, and cursor.</desc>
  <defs>
    <linearGradient id="frame" x1="146" x2="878" y1="146" y2="878" gradientUnits="userSpaceOnUse">
      <stop offset="0" stop-color="#67e8f9"/>
      <stop offset="0.58" stop-color="#22d3ee"/>
      <stop offset="1" stop-color="#e879f9"/>
    </linearGradient>
    <radialGradient id="glow" cx="50%" cy="32%" r="62%">
      <stop offset="0" stop-color="#22d3ee" stop-opacity="0.26"/>
      <stop offset="0.58" stop-color="#22d3ee" stop-opacity="0.08"/>
      <stop offset="1" stop-color="#05070d" stop-opacity="0"/>
    </radialGradient>
    <filter id="softGlow" x="-30%" y="-30%" width="160%" height="160%">
      <feGaussianBlur stdDeviation="18" result="blur"/>
      <feMerge>
        <feMergeNode in="blur"/>
        <feMergeNode in="SourceGraphic"/>
      </feMerge>
    </filter>
  </defs>

  <rect width="1024" height="1024" fill="#05070d"/>
  <path
    d="M144 144h736v736H144z"
    fill="#05070d"
    stroke="#22d3ee"
    stroke-opacity="0.16"
    stroke-width="44"
  />
  <rect x="112" y="112" width="800" height="800" fill="#05070d" stroke="url(#frame)" stroke-width="20"/>
  <rect x="134" y="134" width="756" height="756" fill="url(#glow)"/>

  <g opacity="0.28">
    <path d="M208 248h608M208 336h608M208 424h608M208 512h608M208 600h608M208 688h608M208 776h608" stroke="#67e8f9" stroke-width="4"/>
    <path d="M248 208v608M336 208v608M424 208v608M512 208v608M600 208v608M688 208v608M776 208v608" stroke="#67e8f9" stroke-width="4"/>
  </g>

  <path d="M112 284h800" stroke="#22d3ee" stroke-opacity="0.42" stroke-width="12"/>
  <g fill="#22d3ee">
    <rect x="184" y="192" width="40" height="40"/>
    <rect x="256" y="192" width="40" height="40" opacity="0.72"/>
    <rect x="328" y="192" width="40" height="40" opacity="0.44"/>
  </g>
  <path d="M664 212h168" stroke="#e879f9" stroke-opacity="0.68" stroke-width="18"/>

  <g filter="url(#softGlow)">
    <path
      d="M312 390 474 512 312 634"
      fill="none"
      stroke="#a5f3fc"
      stroke-linecap="square"
      stroke-linejoin="miter"
      stroke-width="74"
    />
    <path d="M538 642h214" stroke="#e879f9" stroke-linecap="square" stroke-width="74"/>
  </g>

  <path
    d="M176 832h672"
    stroke="#22d3ee"
    stroke-opacity="0.72"
    stroke-linecap="square"
    stroke-width="16"
  />
</svg>
